<svg width="512mm" height="512mm" version="1.1" viewBox="0 0 512 512" xmlns="http://www.w3.org/2000/svg"><g transform="matrix(26.9002 0 0 26.9002 -3312.37 -1314.48)"><path d="m132.795 63.7875c0.17692-0.38021 0.29535-0.47401 0.54452-0.43151 0.6585 0.11232 0.7853-0.40535 0.6972-2.84737-0.0758-2.10331-0.0683-2.18844 0.18049-2.05361 0.38171 0.20681 0.71282 0.17225 1.01665-0.10611 0.26148-0.239611 0.26688-0.232411 0.18518 0.24873-0.41077 2.41887-0.62037 5.68336-0.36487 5.68336 0.18049 0 0.23406-0.27491 0.49847-2.55841 0.76302-6.5895 0.83289-7.39095 0.6443-7.39095-0.16332 0-0.2046 0.149714-0.42701 1.54808-0.18779 1.18081-0.21283 1.19336-0.87995 0.440944-0.31147-0.351316-0.86815-0.965438-1.23706-1.36472-0.52793-0.57131-0.65633-0.802572-0.60283-1.0856 0.1567-0.82993-0.66614-1.33816-0.94864-0.58594-0.0772 0.205767-0.1043 0.489209-0.0603 0.629878 0.0513 0.16364-0.10242 0.497942-0.42679 0.92815-1.68614 2.23629-2.3522 5.7282-0.82345 4.317 0.30241-0.27926 0.36091-0.29763 0.28711-0.0903-0.051 0.1432-0.0926 0.31407-0.0926 0.37967s-0.41067 0.57234-0.91259 1.12604c-1.04856 1.15674-0.68665 2.20973 0.50133 1.45864 0.3933-0.2487 0.4431-0.2128 0.3432 0.24769-0.10341 0.47668 0.23069 0.76238 0.73532 0.62879 0.32675-0.0865 0.50369 0.16355 0.64323 0.90903 0 0-0.0209 0.458768 0.21462 0.459542s0.16297-0.229952 0.28447-0.491022z" fill="#000000" stroke-width=".709496"/></g><path d="m324.619 21.3153c0.2725 0.201876 0.48714 0.759075 0.65992 0.829185 0.4422-0.401201 0.55293-0.592064-0.15948-0.682459-0.16678-0.04901-0.33362-0.09783-0.50044-0.146739zm20.2772 6.32678c0.12037 0.23064 0.27692-0.05171 0 0zm-7.50739-0.42443c-1.71832 0.8052-3.70194 0.222172-5.3819-0.405897-1.17513-0.461226-2.34337-1.11317-3.08026-2.1707-0.81639 1.35055-3.05208 1.24203-3.72389-0.185894-0.11085-0.632847-0.38233-0.03121-0.71515 0.119025-1.5495 0.81538-3.41044 0.481874-5.03898 0.09307-1.95524-0.53836-3.84164-1.45495-5.80912-1.81572-5.84164-1.31509-11.8213-1.86266-17.7714-2.43393-12.3428-1.07845-24.7757-1.55329-37.1609-1.41992-6.53685 0.08733-13.0523 0.495956-19.5065 1.47257-15.2353 2.01765-30.2706 5.39264-44.8231 10.3278-19.6128 6.6144-38.408 15.3276-57.04 24.2937-4.54872 2.22249-9.13007 4.49321-13.5523 6.8965 0.92616 0.08691 1.42424 1.22571 0.90094 1.98714-0.62251 0.938963-1.71456 1.44845-2.63988 2.04922-1.24479 0.666627-2.53328 1.34875-3.92431 1.63118-0.8996 0.188559-1.95676-0.631241-1.60389-1.58894-7.55615 4.38552-14.7014 9.3965-21.2844 15.1315-7.81524 6.77073-14.849 14.3807-21.7249 22.0865-4.26902 4.79827-8.48246 9.65347-12.3371 14.7955-6.49628 8.57927-12.4959 17.5691-17.9521 26.858-2.36144 4.14838-4.73255 8.33626-6.34532 12.8433-0.259013 0.88932-0.592429 1.86635-0.178974 2.75149 0.458673 1.75598-0.674914 3.51149-2.1755 4.35409-1.15772 0.84555-1.68498 2.27472-2.30665 3.51959-2.77808 6.64429-4.64499 13.6244-6.41267 20.5924-2.27176 9.29629-4.24352 18.7158-5.49226 28.2045-0.678493 4.79632-0.888895 9.63807-1.02389 14.4752-0.180165 4.43773-0.430162 8.88083-0.923347 13.2958-0.347476 2.48952-0.895681 4.89454-0.978197 7.42679-0.302995 6.65389-0.320415 13.3539 0.263174 19.9601 0.05614 1.35303 0.390223 2.69408 0.375783 4.04402-0.01823 0.92074-1.13556 1.70673-1.92333 1.06862-1.04369-0.73281-1.57836-1.96511-2.15249-3.05569-1.3118-3.52818-1.72004-7.30249-2.32568-10.9954-0.97409-6.87126-1.38525-13.8008-2.01278-20.7082 0.06683 10.2362 1.47066 20.398 3.07089 30.4707 2.32303 14.0836 5.1795 28.0869 8.98153 41.8605 3.61076 13.2047 8.81202 25.9036 14.2383 38.449 4.1924 9.51445 8.56035 18.9922 13.7148 28.0152 1.31073 2.18955 2.55374 4.50283 4.41632 6.27519 1.17059 0.69601 2.35454 1.3708 3.38106 2.27914 2.54523 2.02637 4.67525 4.49778 6.86419 6.88416 1.38577 1.31174 2.99964 2.73315 4.99636 2.83328 0.897215-0.25968 1.78242-0.67793 2.7454-0.50675 2.63018 0.15329 4.97389 1.62765 6.90687 3.29716-0.262234-1.17392 0.503584-2.5252 1.77558-2.60226 1.8995-0.22156 3.61364 0.98965 4.95871 2.194 1.07644 1.01604 1.72796 2.36433 2.57288 3.54946 0.365957 0.49827 1.22519 0.85609 1.60852 0.17478 1.69573-1.6524 4.28395-1.67425 6.48325-1.36348 2.28757 0.33057 4.36731 1.44406 6.62487 1.87847 0.79118 0.21128 1.01246-0.69943 1.14163-1.2742 0.39587-1.95037 0.38055-4.12439 1.69384-5.76567 1.28667-1.47247 3.42189-1.59737 5.24363-1.66631 2.27444-0.10231 4.73635 0.30301 6.78887-0.91479 1.45892-0.99168 2.24194-2.66781 3.10297-4.15264 2.16034-4.21341 4.18627-8.76865 3.97728-13.6096-0.13735-3.88872-1.78655-7.53246-3.8883-10.7408-1.33676-2.17431-2.59112-4.61853-2.48334-7.23891 0.0306-0.78402 0.59096-1.46512 0.3284-2.26399-0.5232-2.31176-2.00278-4.27905-3.54022-6.02957-0.31878-0.27822-0.81995-0.96022-1.09975-0.90784-0.19304 1.20808-0.0592 2.79338-1.23229 3.53692-1.11423 0.52862-2.09293-0.60157-2.48044-1.53574-0.968-1.97299-0.67505-4.36348 0.39485-6.22896 0.29151-0.89838 0.46479-2.03445-0.0766-2.84967-0.91663 0.63963-1.15524 2.04748-2.33719 2.38023-1.0928 0.38764-1.94775-0.69438-2.17334-1.64937-0.2987-1.25211-0.2606-2.68466-1.2455-3.65836-1.85987-2.00773-4.87259-2.2922-7.44117-1.91662-1.96917 0.32327-3.58628-1.1836-4.75064-2.57185-1.27032-1.58181-1.98484-3.53463-3.54607-4.88912-1.1866-1.21899-2.68155-2.08345-4.26072-2.67598-2.55003-1.49221-4.21752-4.03633-5.87178-6.40448-4.76758-7.26276-8.31891-15.2409-11.5366-23.2868-4.29625-10.9478-7.47628-22.3771-8.83484-34.0768-3.06643-25.2066 0.874027-50.9596 9.59556-74.7094 10.7656-29.3255 28.7382-55.9051 51.6202-77.1406 8.79031-8.12495 18.2621-15.5395 28.4194-21.8818 14.9225-9.21952 31.393-15.5238 47.9258-21.1837 7.15711-2.43466 14.352-4.74275 21.5673-6.99591-0.82677-0.127776-1.81678-0.701103-1.64589-1.673 0.25831-1.35613 1.76426-1.76272 2.85492-2.2612 2.89187-1.0747 5.99816-1.5129 9.0718-1.58208 0.94072 0.02544 2.35224 0.286401 2.34971 1.48324 0.0155 0.701893-0.58137 1.33031-1.03865 1.65957 1.97918-0.09509 3.95407-0.3637 5.88695-0.798252-1.02312-0.161584-2.30276-0.187959-2.97465-1.08816-0.49462-0.924927 0.43641-1.89669 1.33368-2.04204 4.85843-1.65696 10.0386-1.8593 15.1061-2.33724 10.226-0.790074 20.4853-1.27421 30.7436-1.19246 1.96365 0.05049 3.98219 0.02208 5.88163 0.564401 0.94537 0.40523 0.99351 1.95061-0.0362 2.28319-2.14914 0.859352-4.51483 0.831439-6.7851 1.07508-1.81751 0.128932-3.6366 0.21504-5.45795 0.260463 8.41643 0.06197 16.8014 1.2068 24.9746 3.1984 7.89663 1.90133 15.666 4.29515 23.4207 6.70212 16.0056 5.11386 31.6918 11.5738 45.9352 20.5599-5.13198-3.45091-10.4778-6.57261-15.9309-9.48441-2.46622-1.45536-5.04135-2.85928-7.03489-4.9513-0.62842-0.710356-0.44321-2.08402 0.60738-2.25258 1.99858 0.0068 3.79608 1.03248 5.62237 1.71743 5.48387 2.33922 10.8502 4.96779 16.0461 7.89043 9.22306 5.33889 17.8843 11.6103 26.0878 18.4044 3.51359 2.97555 7.02887 6.02982 9.84229 9.69707 0.63518 0.86489 1.15878 1.87383 1.18668 2.96662 0.73751 0.73665 1.88356 0.0247 2.75958 0.42771 1.91166 0.6451 3.13681 2.39357 4.34274 3.90567 2.73323 3.69158 4.2325 8.15768 7.11799 11.744 0.25353 0.21764 0.60227 0.76795 0.88256 0.6819 0.67507-0.94328 2.14359-0.68716 2.77436 0.18612 1.36035 1.75195 1.99308 3.93971 2.70933 6.0091 0.99988 3.12412 2.19399 6.36021 4.57248 8.71598 1.19896 1.11895 2.95998 1.46412 4.01268 2.78009 1.11419 1.10082 1.74824 2.65687 1.66807 4.22192 0.31002 1.65765 1.79286 2.72274 3.25642 3.32462 3.15475 1.78589 5.92668 4.36968 7.69242 7.55389 0.61695 1.08391 0.9229 2.7548-0.20786 3.61905-0.4895 0.29975-1.09931 0.52876-1.15021 1.19243-0.65658 2.11223 0.0534 4.29632 0.21661 6.41737 0.058 0.94266-0.95414 1.90619-1.86707 1.37325-1.37067-0.77059-2.05936-2.2793-2.93988-3.5123-2.00064-3.14433-3.84405-6.38629-5.69161-9.62268 4.35933 12.8603 8.34177 25.843 12.4026 38.8012 1.77805 5.44725 3.49308 10.9332 5.76458 16.1986 0.83408 1.61137 1.83002 3.48363 1.17709 5.33318-0.22066 0.51702-0.99502 0.7657-0.77727 1.42565 0.15413 1.99475 1.42562 3.66298 1.91088 5.57264 1.27285 3.52682 1.9556 7.22635 2.98769 10.8212 0.0899 0.75059 0.41345 0.60176 0.68015 0.0118 0.57844-0.87276 1.1881-2.09084 2.36376-2.15779 1.09082 0.10712 1.31156 1.49265 0.88556 2.31813-0.3956 1.2289-1.19351 2.39237-2.36891 2.98324-0.78317 2.60582-0.93182 5.27029-1.27681 7.97258-0.84249 7.49159-1.06558 15.0347-1.69323 22.5425-1.41157 14.7198-4.46222 29.2447-8.38954 43.4884-2.70843 9.66385-5.87263 19.2377-10.1464 28.3302-1.7986 3.8247-4.03 7.42588-6.48962 10.8581-7.56771 10.9864-15.5497 21.6819-23.4204 32.4516-3.0907 4.20962-6.18634 8.41561-9.2833 12.6206 5.49009-5.06335 10.2732-10.8448 14.9106-16.6674 7.49341-9.63888 14.4988-19.6895 20.5159-30.3039 6.96405-12.2895 12.0665-25.556 15.8388-39.1858 3.74998-13.617 6.00927-27.5902 7.07655-41.6784 0.38666-4.1305 0.66918-8.28899 1.50607-12.3588 0.21515-1.04283 0.8965-2.43187 2.16633-2.25401 1.37165 0.31643 1.89751 1.82972 2.52842 2.92221 1.07976 2.09246 2.1767 4.37366 2.01307 6.78721-0.11352 0.65395-0.50413 1.27904-1.09816 1.59497 1.42045 1.38003 1.6466 3.48541 1.93604 5.34269 0.51008 4.45875 0.29462 9.02988-0.82573 13.3818-0.42699 1.53818-1.12148 3.29135-2.72836 3.90983-0.75982 0.46453-0.6628 1.56053-0.54218 2.33344 0.36401 1.45424 0.7532 2.91421 0.71561 4.42819 0.1391 4.92555-0.81468 9.80041-1.83581 14.5957-2.03315 9.05224-4.8788 17.9442-8.70524 26.3999-1.67409 3.57054-3.4541 7.20054-6.18741 10.0925-1.36002 1.34669-2.73448 2.77303-2.97573 4.7232 0.16761 0.83948 0.49553 1.71756 0.11138 2.55634-0.98064 3.30994-2.82791 6.2684-4.51038 9.25417-4.52562 7.60986-9.84594 14.7057-14.7922 22.0416-2.08734 2.98713-4.05463 6.06543-6.21292 8.99869-3.67124 4.1748-7.9029 7.80203-12.0593 11.4781-6.71037 5.75625-13.5758 11.272-19.7962 17.5729-1.50134 1.50781-2.64674 3.33417-4.29052 4.70309-3.62094 3.18091-7.72179 5.75532-11.7793 8.33589-9.04648 5.62879-18.4588 10.671-28.0496 15.3093-5.29012 2.51549-10.6384 4.98527-16.2708 6.6381-1.36345 0.34861-2.89407 0.7328-4.25068 0.18999-0.54806-0.25446-0.80224-0.87777-0.95699-1.38726-1.24419-0.26383-2.44603 0.12039-3.64347 0.43597-0.86792 0.19959-1.88578 0.88953-2.73711 0.32163-0.74113-0.6283-0.2056-1.7722 0.57746-2.08952 2.5053-1.66128 5.24386-2.93253 7.88206-4.36461 2.00712-1.03863 4.0257-2.0548 6.04557-3.06838-5.32592 2.20905-10.5673 4.66669-16.0835 6.37669-1.59029 0.38307-3.23838 0.96832-4.89009 0.6886-0.80088-0.15811-1.54222-0.80823-1.56469-1.66484-1.66494 1.68278-3.20198 3.52252-5.18187 4.85799-0.26165 0.3024-1.29092 0.55258-0.61877 0.90348 1.31654 0.64197 2.4215 2.12251 1.97471 3.63788-0.81722 2.09391-3.04952 3.09643-5.01701 3.84158-2.81621 0.97334-5.76981 1.59412-8.73843 1.81949-0.90853 0.0542-1.83117-0.93384-1.31231-1.80559 0.98158-1.44583 2.85494-1.83022 4.00316-3.11003 1.72716-1.61827 3.07195-3.76567 3.31027-6.15835-2.19314 1.28831-4.06171 3.04459-6.11248 4.53511-0.99714 0.74447-2.00954 1.64014-3.25712 1.89017-1.07509 0.03-1.64469-1.28669-1.19072-2.17104 0.54738-1.96683 1.7517-3.74461 2.06569-5.69421-1.0479 0.83639-1.48954 2.16302-1.64459 3.44422-0.83025 2.73428-3.36491 4.77506-6.1105 5.3606-1.13471 0.0878-2.02452-1.0772-1.81386-2.15816 7e-3 -0.91574 0.17826-1.8208 0.35734-2.71547-1.44099 2.06951-2.82064 4.29039-4.86323 5.82165-0.89915 0.62034-2.35092 0.30292-2.64374-0.8321-0.27735-0.66049-0.16145-1.50227-0.21533-2.11497-1.38803 1.00291-2.47671 2.34976-3.73741 3.49944-0.70613 0.6522-1.68509 1.55655-2.71343 1.11276-1.06603-0.60558-0.79758-2.03326-0.61688-3.03479 0.1131-0.68897 0.25404-1.37306 0.38916-2.05806-1.46959 2.11862-2.88891 4.39195-5.00819 5.92249-0.92301 0.55496-2.33821 0.15613-2.55729-0.98138-0.15288-0.43959-0.16175-0.91281-0.15151-1.37342-1.12686 1.01588-2.03807 2.66418-3.7204 2.74036-1.23467-0.0831-1.60926-1.5233-1.48353-2.55019-0.33558-0.77814-1.40188-0.76332-2.12708-0.8817 1.33435 0.65367 1.13154 2.77053-0.16879 3.35574-1.87458 1.15371-4.3876 1.18615-6.3285 0.18178-0.70524-0.37451-1.33793-1.12269-1.18822-1.96962-1.36148 0.55873-2.41176 2.11629-4.03674 1.82702-1.08003-0.11772-1.57941-1.34669-1.61097-2.21528-1.09661 1.02428-2.01338 2.62778-3.67525 2.70736-0.75935-7e-3 -1.31504-0.69288-1.4356-1.3978-1.59295 1.14895-3.66846 0.69068-5.48508 0.58155-5.22879-0.54602-10.296-2.05799-15.4295-3.09409-1.52563 0.56068-3.1853 0.27494-4.75407 0.0795-3.21646-0.54998-6.30253-1.71378-9.25997-3.06384-0.72563-0.38572-1.85952-0.98062-1.48186-1.98116 0.12153-0.33016 0.39659-0.59052 0.71591-0.73076-0.65152 0.0119-1.45779 0.0323-1.80034 0.68751-0.72242 0.73701-1.88012 0.50723-2.81461 0.48946-3.55643-0.36372-6.89847-1.72336-10.3456-2.57835-2.76781-0.54725-5.64734-0.91754-8.453-0.44041-1.46831 0.22904-2.7292 1.14678-4.23298 1.24639-3.5349 0.38144-7.05137-0.67582-10.288-2.00763-2.72484-1.21758-5.42534-2.80033-7.26914-5.20061-0.26433-0.36645-0.49875-0.75824-0.67443-1.17505-1.22439 2.65849-2.19217 5.58007-3.32396 8.30223 2.31633 0.65197 4.32346 2.07457 6.26311 3.45141 0.97445 0.78815 2.0539 1.63176 2.5357 2.82092 0.22673 0.88196-0.61326 1.83196-1.52054 1.66121 12.7656 6.69408 25.959 12.4637 39.5203 17.3641 6.07489 2.12721 12.2396 4.23887 18.5587 5.53923 9.28209 1.9457 18.6952 3.22422 28.1302 4.14777 4.24981 0.34165 8.52376 0.72929 12.7879 0.46867 2.78269-0.14468 5.16144-2.20283 8.0026-1.92212 2.50326 8e-3 4.87519 1.03501 7.38545 0.9852 4.61858 0.18611 9.24984-0.23084 13.8757-0.65085 5.4217-0.57046 10.8715-1.21287 16.1395-2.65918 2.01202-0.71387 3.95359-1.62253 6.02849-2.15699 6.49913-2.0447 13.1721-3.44615 19.7616-5.15408 3.15248-0.8749 6.35292-1.74742 9.25298-3.29379 0.31632-0.24067 0.22888-0.74218 0.561-1.02223 1.05943-1.34276 2.84576-1.75826 4.4257-2.15655 2.28365-0.49134 4.71754-0.53495 6.82842-1.63443 1.29069-1.43277 3.0972-2.23331 4.68234-3.28383 12.9585-7.79078 26.5618-14.4673 39.4148-22.4447 22.4535-13.7465 43.5418-30.065 60.7191-50.1381 12.9422-15.0811 23.4634-32.186 31.3675-50.3934 2.5734-5.88698 4.84338-11.8924 7.00718-17.9192 1.22136-3.20777 2.39727-6.4813 4.26829-9.37877 0.40867-0.31689 0.42949-0.53342 0.16636-0.95144-0.25194-3.06131 0.24195-6.12903 0.64619-9.15895 0.52512-3.01893 1.18134-6.1477 2.92517-8.72349 0.54385-0.84265 1.86692-1.41846 2.64934-0.55331 0.75383 0.75624 0.65229 1.91421 0.60887 2.89374 0.87306-3.78333 1.68768-7.68243 2.02512-11.4924-0.43447 0.70278-1.33486 1.5797-2.18212 0.96616-0.9125-0.77409-0.42557-2.08027-0.30613-3.08079 0.26755-1.5651 0.67509-2.83969 0.51014-4.39917-1.16348-0.33244-1.15035-1.79836-1.14389-2.782-0.0431-5.87937 1.26406-11.6529 1.73889-17.4947 0.58648-6.41746 0.84763-12.8986 0.67701-19.3401-0.13503-4.3258-0.46548-8.71238 0.35528-12.991 0.10234-0.6432 0.46945-1.24798 0.95367-1.62806 0.0294-0.51965 0.0311-1.07982-0.0364-1.57148-1.30188 0.6457-3.07965-0.2507-3.18453-1.74093-0.20915-1.44271 1.32788-2.82057 2.73806-2.39586-1.68272-11.5088-4.18854-22.8769-6.77326-34.2106-1.10233-4.67805-2.71899-9.27727-5.17645-13.4234-0.97808-1.74773-2.55181-3.06051-3.56883-4.77223-0.46694-0.71328-0.40695-1.88521 0.53892-2.15033 0.81094-0.23131 1.61235 0.19275 2.33632 0.5123-1.81596-2.40486-3.89109-4.72254-4.83248-7.64635-0.47361-1.23252-0.54601-2.6373-0.0762-3.86929-0.25564-2.28902-1.33752-4.37571-2.19157-6.48531-3.09855-7.07142-6.78612-13.864-10.4513-20.6628 3.05376 6.58841 6.10754 13.1768 9.16129 19.7652-0.0325 0.62345 0.30969 1.64255-0.55475 1.83395-0.80699-0.22972-1.38479-0.98617-1.79528-1.69336-2.5341-4.6716-5.15402-9.30173-7.70754-13.965-4.44843-8.06595-8.97094-16.0864-14.0394-23.7734-12.8958-19.7686-28.4596-37.9213-46.4643-53.1961-5.96337-5.1045-12.244-9.8236-18.6495-14.3547-4.31725-3.17578-8.64939-6.40933-12.4174-10.2384-0.59455-0.602244-1.19156-1.28152-1.36883-2.13415-1.30763 0.719775-2.86732 0.236822-4.25195 0.05132-6.61927-1.28521-12.8976-3.85799-19.0969-6.43905-2.31193-1.03102-4.67585-2.05166-6.71438-3.57136-0.32889-0.165995-0.45572-0.793588-0.89328-0.461037-1.70768 0.301194-3.33633-0.619761-4.76977-1.43331-0.56241-0.372357-1.12025-0.900701-1.24845-1.58383-0.058 0.03383-0.11671 0.06686-0.17503 0.100261zm52.205 20.4687c-0.21302 0.07578 0.11723 0.317759 0.089 0.06354 3e-3 -0.04948-0.0547-0.05428-0.089-0.06354zm26.2561 20.0476c-0.2434 0.155139 0.19451 0.278269 0.0705 0.02329l-0.0288-0.01275zm5.27378 5.04074c-0.28379 0.331012 0.33785 0.144394 0 0zm-78.1963-22.922c1.72674 0.4605 2.03229 3.1516 0.44108 3.9783-1.4447 1.01674-3.69297-0.442564-3.33389-2.18082 0.13359-1.33464 1.63614-2.2659 2.89281-1.79748zm-24.0611-5.71075c1.74203 0.299121 2.29963 2.88055 0.85917 3.88299-1.3141 1.19019-3.69357 0.0099-3.57988-1.74229-0.0305-1.38445 1.38644-2.48536 2.72071-2.1407zm38.7247 12.4633c2.5172 0.919121 4.73285 2.54163 6.65766 4.37735 0.67204 0.634527 0.97186 1.86418 0.11682 2.48644-1.42424 0.678059-2.96174-0.131294-4.33702-0.547029-2.19396-0.788949-4.60392-1.80726-5.75909-3.97232-0.5341-1.12843 0.27629-2.68725 1.60162-2.61389 0.58465-0.03533 1.16413 0.1012 1.72001 0.269456zm69.2699 22.3596c0.40475 0.751166-0.26353-0.659763 0 0zm-56.3336-15.3382c1.2415 0.246452 2.44284 1.34423 2.2004 2.70297-0.2655 1.29659-1.84167 1.69106-2.96078 1.32165-1.61041-0.358659-3.22478-1.11289-4.32359-2.36427-0.56284-0.890836 0.22009-2.14974 1.26358-2.07939 1.28686-0.162274 2.57922 0.09409 3.82039 0.419039zm-94.12-25.7501c1.70614 0.296892 2.28475 2.7733 0.93924 3.82836-1.21165 1.16386-3.46218 0.28585-3.64209-1.35439-0.25217-1.49212 1.23878-2.86012 2.70285-2.47397zm156.8 48.1536c0.4419 0.818198-0.28043-0.69498 0 0zm-103.283-31.3161c7.78621 2.40422 15.4046 5.44495 22.5195 9.43202 0.71715 0.540965 1.70221 0.981007 2.00181 1.88633 0.2334 0.998109-0.87339 1.80627-1.79723 1.53617-3.02427-0.303615-5.90177-1.3696-8.8089-2.19825-8.7944-2.77611-17.3858-6.19502-26.3222-8.51578-19.4356-5.27393-39.7204-7.45705-59.8355-6.0292-5.57183 0.34342-11.1679 0.875159-16.7483 0.466609-0.86625-0.0065-2.05113-0.468651-1.97028-1.50354 0.16035-1.17663 1.56517-1.38491 2.51116-1.61162 4.92189-1.06176 9.94609-1.52831 14.9552-1.9596 15.1087-1.08464 30.3083-0.075 45.2684 2.17313 9.53772 1.45641 18.993 3.50913 28.2263 6.32374zm49.2519 14.9768c2.97688 1.41456 5.53684 3.53613 8.15299 5.50718 3.56315 2.80474 7.11314 5.6889 10.1193 9.09708 0.63065 0.626233 1.17143 1.81528 0.36917 2.51831-0.99778 0.736296-2.17057-0.1573-3.04807-0.667418-5.00107-3.19846-9.50599-7.10185-13.911-11.0619-1.19447-1.12379-2.38399-2.28519-3.34409-3.61544-0.57683-1.17692 0.37016-2.30137 1.66174-1.77778zm-107.929-31.6983c1.70541 0.293757 2.28413 2.76617 0.94654 3.82443-1.21039 1.17074-3.47064 0.293627-3.64882-1.35233-0.24875-1.49211 1.23857-2.85496 2.70228-2.4721zm-15.2735 0.40928c1.72392 0.463445 2.03248 3.15026 0.44109 3.97831-1.44187 1.01323-3.68755-0.434343-3.33768-2.17159 0.13182-1.33933 1.63496-2.27523 2.89659-1.80672zm-59.5975-13.6658c-0.62589 0.221502-0.54039 0.404482 0.0191-0.0024zm128.896 39.0184c6.00806 1.89527 12.0906 3.65566 17.8389 6.26108 0.81788 0.346025 1.85558 1.24345 1.30306 2.20818-0.6763 1.04164-2.11434 0.707837-3.14554 0.573185-4.75257-0.749864-9.34839-2.23855-13.9341-3.65747-6.29347-2.06765-12.6291-4.00736-19.0326-5.70711-4.79216-1.30749-9.59801-2.39854-14.4799-3.33887-2.37275-0.564878-4.85493-1.05656-6.93324-2.39412-0.88959-0.623904-0.83267-2.2148 0.29853-2.52721 1.40438-0.49584 2.90814-0.02938 4.33593 0.109651 7.96101 1.30998 15.765 3.40562 23.5457 5.51186 3.41369 0.943066 6.81197 1.94045 10.2033 2.96083zm88.7572 26.8063c1.68261 0.451835 2.03443 3.0469 0.52494 3.92382-1.3967 1.08378-3.69484-0.271617-3.43296-2.01775 0.0764-1.38277 1.60723-2.39155 2.90799-1.9061zm-34.3378-10.1723c2.90121 1.03674 5.29961 3.06412 7.67138 4.96596 2.30772 1.93145 4.67418 3.88584 6.43768 6.3479 0.50714 0.730176 0.50523 1.9244-0.4137 2.32727-1.54973 0.336393-2.90353-0.766266-4.17095-1.47881-3.86234-2.44734-7.59692-5.2104-10.6274-8.6577-0.59674-0.803472-1.40839-1.91814-0.85653-2.93853 0.39961-0.643571 1.28109-0.792913 1.95957-0.566089zm-141.429-40.6166c1.70601 0.295681 2.28632 2.77463 0.93736 3.8278-1.21177 1.16529-3.46679 0.282365-3.64039-1.35999-0.25027-1.4902 1.24286-2.85438 2.70303-2.4678zm-9.03939 2.3308c1.72369 0.462884 2.03197 3.15056 0.44108 3.9783-1.44212 1.01344-3.68638-0.434315-3.33767-2.17158 0.12929-1.33851 1.63746-2.27498 2.89659-1.80672zm190.66 58.1371c2.57196 1.13242 5.09839 2.59552 6.85313 4.84411 1.34822 1.60746 2.18085 3.59933 2.45691 5.67284 0.24654 0.77087 0.28283 1.97631-0.61635 2.2976-1.08481 0.31026-1.68921-0.83971-2.1865-1.58437-2.05045-3.46005-4.84382-6.38979-7.64799-9.2383-0.6008-0.57758-0.5334-1.89804 0.41294-2.02155 0.23873-0.0672 0.49663-0.0608 0.72789 0.0297zm-22.7326-5.02889c2.39029 0.807816 3.94013 2.93757 5.67728 4.63516 6.94081 7.45955 13.4484 15.3097 19.75 23.3109 4.80911 6.17382 9.49813 12.4657 13.603 19.1343 1.18266 1.8974 1.98456 3.98826 2.64785 6.1139 0.47417 1.51916 1.29668 2.99794 1.27335 4.62212 0.0841 0.68944-0.82947 1.00382-1.21322 0.4447-1.27626-1.20506-1.90904-2.88238-2.85733-4.32785-1.83493-3.25969-3.99403-6.3701-6.28959-9.34677-8.06645-10.7593-16.6007-21.1581-25.1752-31.5132-2.77908-3.37256-5.68605-6.64822-8.35984-10.102-0.55092-0.732035-1.19151-1.93136-0.40388-2.71636 0.37189-0.309317 0.88867-0.380715 1.34763-0.254811zm-161.597-45.4092c1.21644 0.365951 1.67684 2.12724 0.65667 2.95888-0.9993 1.04324-2.55392 1.85113-4.01528 1.45101-1.21871-0.511389-1.25485-2.18602-0.52739-3.12513 0.80148-1.2868 2.53175-1.80146 3.886-1.28476zm153.441 55.3947c4.72872 4.20875 9.01374 8.876 13.5935 13.2412-4.39909-5.17991-9.46895-9.74096-14.6193-14.1562 0.34191 0.30499 0.68382 0.60997 1.02573 0.91495zm42.9 18.8273c1.80996 0.74786 2.95163 2.47104 4.23362 3.86883 4.79991 5.85757 9.06296 12.1602 12.7872 18.7486 0.60903 1.16297 1.26793 2.37082 1.43454 3.68564-1e-3 1.06141-1.44472 1.64366-2.17154 0.85285-1.94433-1.52906-3.31168-3.63909-4.80722-5.57942-4.11725-5.63296-8.07154-11.3822-12.1463-17.0458-0.71404-1.07701-1.54596-2.37916-1.20372-3.72243 0.28998-0.72174 1.16021-1.00883 1.87345-0.80828zm-16.6729 10.1299c1.97613 3.12608 4.07998 6.17144 6.2894 9.13688-2.04278-3.25888-4.22561-6.4295-6.51976-9.51639 0.0768 0.12652 0.15359 0.25299 0.23039 0.37949zm-235.166-67.8465c1.04665 0.339462 0.88119 1.82059 0.0633 2.32161-2.82634 2.06076-5.99108 3.61698-9.19979 4.98173-0.78495 0.340302-2.1086 0.34013-2.30428-0.706617-0.1244-1.2271 1.18674-1.8745 1.98184-2.54676 2.50283-1.8153 5.29191-3.32826 8.30132-4.08817 0.38097-0.06759 0.78705-0.08284 1.15758 0.03823zm282.363 116.766c1.25323 0.60118 1.65761 2.09568 2.30759 3.22095 2.17329 4.9568 3.66699 10.208 4.61584 15.5292 0.11391 0.83028-0.59134 1.69196-1.46736 1.47122-1.27629-0.7852-1.70474-2.32069-2.46765-3.52571-2.247-4.35223-3.72024-9.10582-4.4013-13.9541-0.0501-0.90244-0.36744-2.21859 0.66637-2.68464 0.22677-0.1078 0.50759-0.12859 0.74651-0.0569zm-14.2656 1.66769c1.72404 0.46314 2.03236 3.15018 0.44107 3.97829-1.44495 1.01618-3.69777-0.44258-3.33519-2.18325 0.13634-1.33294 1.63757-2.26423 2.89412-1.79504zm52.9602 93.6751c-0.23517 0.14025 0.18748 0.29108 0.0748 0.0225-0.0209-0.0147-0.0517-0.0165-0.0748-0.0225zm-0.19878 6.72475c-0.57391 0.88944 0.35616 1.85916 1.16467 2.17801 0.64482 0.41301 5e-3 -0.48641-0.0928-0.77999-0.26361-0.51155-0.52507-1.15351-1.07188-1.39802zm-27.4053 11.0387c1.00484 0.44161 0.81025 1.73162 0.60627 2.59792-0.44576 2.65728-0.80553 5.41448-2.05221 7.83892-0.73568 1.08402-2.77853 1.05422-3.11044-0.36005-0.3315-2.06489 0.71295-4.00642 1.43256-5.8732 0.59627-1.33684 1.1088-2.75093 1.98681-3.93019 0.29773-0.26989 0.75083-0.41491 1.13701-0.2734zm-436.487-118.719c1.70406 0.29649 2.28612 2.77114 0.941677 3.82704-1.20833 1.16673-3.45872 0.29049-3.64299-1.34806-0.257281-1.49292 1.23577-2.86539 2.70131-2.47898zm-4.42838 15.1824c0.980895 0.51578 0.710288 1.79183 0.535165 2.67695-0.465754 2.63867-0.797163 5.40062-2.08215 7.79063-0.769373 1.09089-2.87788 0.92203-3.10179-0.52595-0.229787-2.17616 0.851612-4.20273 1.63946-6.16169 0.568629-1.21758 1.00376-2.55915 1.88046-3.58772 0.316397-0.2345 0.755254-0.35697 1.12886-0.19222zm428.006 144.567c1.9099 0.83248 3.15604 3.38172 1.99583 5.27636-0.71343 1.38079-2.67751 2.32878-4.04893 1.32002-1.26097-1.03354-0.98844-2.87135-0.62627-4.26442 0.23074-1.2369 1.16865-2.90356 2.67937-2.33196zm-450.874-109.608c-0.237105 0.14796 0.196195 0.27666 0.070505 0.0233l-0.02874-0.0129zm452.691 165.218c-0.232 0.11356 0.17571 0.30088 0.0787 0.03-0.0208-0.0197-0.053-0.0222-0.0787-0.03zm-3.00027 4.19556c-0.23813 0.14411 0.19387 0.2828 0.0705 0.0233l-0.0287-0.0128zm-2.99898 4.19801c-0.24154 0.12801 0.17642 0.29697 0.0737 0.0263-0.0191-0.0189-0.0472-0.0236-0.0737-0.0263zm-73.4243 13.7101c-5.77437 4.26804-11.2185 9.03256-17.2506 12.9802-2.02616 1.37883-4.14927 2.60141-6.28414 3.79943-1.53854 0.95503-3.07908 2.14004-3.87038 3.80974-0.13427 0.59979 0.78948 0.0236 1.09945 0.02 2.57042-0.98569 4.79935-2.65123 7.03902-4.18324 6.21292-4.49271 11.9478-9.54994 17.6202-14.7016 0.76704-0.71646 1.53063-1.43657 2.27918-2.1724-0.21065 0.14962-0.42187 0.29842-0.6327 0.44779zm13.9905 19.2887c1.22477 0.35843 1.69036 2.13555 0.66137 2.96568-1.01239 1.05056-2.59605 1.87749-4.06821 1.42151-1.21047-0.5715-1.16697-2.26483-0.40692-3.19097 0.81697-1.20466 2.45564-1.70153 3.81376-1.19622zm-364.946-106.881c2.00728 1.06573 3.09576 3.26611 3.75077 5.34803 0.254907 0.9424 0.433057 2.3127-0.550203 2.8968-1.10607 0.46129-2.03756-0.63115-2.53883-1.48516-1.06333-1.63027-2.05855-3.39195-2.43237-5.31605-0.09321-0.9685 0.7907-1.86134 1.77064-1.44362zm350.803 118.378c0.95121 0.43533 0.66224 1.74082-0.046 2.26468-5.79006 4.54602-12.0581 8.4464-18.4325 12.1127-14.5726 8.31593-30.0527 14.9882-45.9257 20.3894-13.2934 4.4549-26.9266 7.87053-40.7202 10.3751-15.7552 2.82256-31.8703 4.02702-47.8368 2.5562-14.983-1.3313-29.684-4.95781-43.8814-9.85738-3.34506-1.1176-6.73-2.16125-9.97982-3.52637-0.80256-0.3878-0.95343-1.72601 0.0205-1.9962 1.04224-0.35442 2.11957 0.17334 3.163 0.28725 11.5017 2.33995 22.8384 5.50528 34.4652 7.20986 13.8923 2.14008 27.904 3.15059 41.9554 2.96926-1.39782-0.24645-2.24718-1.94923-1.51678-3.19093 0.6828-1.41871 2.91575-1.59094 3.75714-0.24066 0.83305 1.14175 0.28789 2.95068-1.0829 3.37446-0.056 0.0884 1.0707-0.0139 1.46725 2e-3 8.19613-0.23797 16.3886-0.90841 24.3799-2.76364 1.49436-0.38214 2.97468-0.8189 4.43197-1.32442-6.8509 1.00715-13.6579 2.31962-20.5479 3.04602-1.97978 0.21286-3.99444 0.44986-5.9794 0.26518-0.87191-0.1345-1.42366-1.32826-0.68847-1.95099 1.09728-0.94471 2.61081-1.11205 3.94343-1.55598 7.15219-1.94611 14.4227-3.42111 21.7126-4.74283 4.56722-0.76346 9.18159-1.53562 13.8259-1.42402 0.9921 8e-3 2.37097 0.36323 2.51033 1.52388-0.29073 0.69339 0.47097 0.4628 0.92061 0.43593 4.09396-0.69872 8.00273-2.07649 11.9209-3.45022 14.206-5.22376 27.9704-11.5204 41.4522-18.3818 7.96713-4.05582 15.7946-8.42052 24.0181-11.9445 0.85579-0.28901 1.77769-0.83485 2.69341-0.46258zm-343.928-102.064c1.7287 0.45986 2.03163 3.15481 0.438278 3.97904-1.46877 1.03571-3.74441-0.49511-3.32444-2.25153 0.188618-1.29908 1.64876-2.18231 2.88616-1.72751zm327.367 101.584c1.22126 0.36386 1.6792 2.13488 0.65416 2.96369-1.01327 1.0522-2.60702 1.88565-4.07914 1.416-1.20383-0.5749-1.15045-2.26064-0.39721-3.18409 0.81762-1.20968 2.46156-1.70256 3.82219-1.1956zm-67.2667 10.6598c-0.55935 0.18261-0.64929 0.45992-0.023 0.0359l0.0575-0.0419zm-227.507-52.167c-0.239427 0.13554 0.193325 0.2919 0.07048 0.0233l-0.02869-0.0128zm210.722 64.9966c1.96668 0.59684 2.7432 3.28675 1.47116 4.8792-1.22053 1.78952-3.55952 2.03772-5.50274 2.48469-7.78068 1.63311-15.6648 2.71228-23.5557 3.64359-2.03009 0.21402-4.0391 0.38068-6.05515 0.62395 0.85357 0.44166 1.19511 1.74963 0.32761 2.35778-1.17476 0.95293-2.79769 0.95739-4.22737 1.16878-4.45665 0.42595-9.03182 0.46287-13.3975-0.64077-0.94902-0.25811-1.90626-0.70547-2.50286-1.51512-0.58801 1.22381-2.15441 1.36445-3.35459 1.46551-1.79822 0.0514-3.74098-0.64921-4.73643-2.22084-0.55363 1.22926-2.13218 1.1737-3.27432 1.14118-4.62195-0.23757-9.14047-1.3358-13.6505-2.3028-6.50219-1.47512-13.0422-3.06135-19.1483-5.79127-0.98359-0.48756-2.15316-1.02533-2.60689-2.08372-0.13019-0.64365-0.14968-1.43998-0.89745-1.68659-1.11519-0.398-2.38906-0.29789-3.39758-1.01154-1.01831-0.55535-2.17308-1.44075-2.21671-2.6923 0.12991-1.14232 1.50618-1.31937 2.42376-1.15583 4.56448 0.61791 8.95915 2.0699 13.3517 3.4049 4.47452 1.42757 8.92744 2.97196 13.2036 4.91568 1.01602 0.54546 2.07579 1.06077 2.81677 1.98157 0.55967 0.73582 1.44251 0.0891 2.03879-0.21542 2.76899-0.82601 5.69858-0.74882 8.55833-0.86 6.71437-0.0583 13.42 0.45594 20.1361 0.37059 9.3746-0.01 18.7716-0.22311 28.0911-1.30707 2.16754-0.27241 4.38707-0.55524 6.37595-1.33523 1.88024-1.06403 3.65253-2.33296 5.67814-3.12556 1.26189-0.54712 2.69491-0.89488 4.051-0.49333zm-80.922-5.8557c-0.0545 0.51812 0.186 0.34941 0.40226 0.10692-0.13365-0.0372-0.26814-0.0714-0.40226-0.10692zm-47.1863-11.4678c-0.24142 0.13352 0.19329 0.28832 0.0705 0.0233l-0.0287-0.0128zm10.431 4.92423c-0.2434 0.15515 0.19476 0.2781 0.0705 0.0233l-0.0287-0.0128zm-52.3229-13.7889c-0.65306-0.27159-0.27745 0.47909-0.16227 0.8067 0.66368 1.37635 1.76144 2.64434 3.17287 3.27684 0.48954 0.26104 1.11109 0.11762 1.30725-0.43066 0.28449-0.39544 0.6466-0.76762 1.10993-0.94424-1.71087-1.11686-3.50526-2.14084-5.42782-2.70865zm7.67643 4.24303c0.23307 0.68746 0.27594 1.44466 0.43699 2.13077 1.00343-0.64153 2.18683 0.14273 3.06773 0.54912-1.13769-0.90949-2.33961-1.86741-3.50472-2.67989zm21.2553 7.2845c-1.6945 0.68164-3.55921-0.0264-5.12949-0.72721-0.47099-0.27847-0.66239-0.35919-0.43319 0.24177 0.27921 1.05887-0.66896 2.04375-1.71945 2.00762-0.43507 0.0531-1.38817-0.16963-0.61632 0.39516 2.2269 2.33207 5.10867 3.89639 7.46572 6.07097 0.61457 0.75214-0.0998 2.05872-1.08257 1.78504-1.85246-0.51888-3.59568-1.3711-5.31851-2.21169-2.11781-1.17828-4.18627-2.83594-5.06213-5.16422-0.11345-0.20834-0.22878-1.42165-0.39815-0.73332-0.28639 0.6592-1.05209 0.95193-1.73324 0.89132 4.98388 3.90989 10.414 7.20049 15.8942 10.3586-0.71684-0.67353-1.57753-1.39249-1.79896-2.39025-0.0444-0.58118 0.41227-1.05302 0.18275-1.64211-0.16583-2.98009 2e-3 -5.91892-0.22936-8.89159zm62.0022 20.9977c-0.25079 0.12261 0.24769 0.33483 0.0654-0.0272zm9.35601 2.88672c-0.23166 0.10593 0.16739 0.30784 0.0768 0.0294-0.0201-0.0204-0.0482-0.0279-0.0768-0.0294zm-56.0179-10.2596c4.6809 1.67606 9.18211 3.85616 13.4379 6.41987 0.67976 0.44386 1.61112 1.32344 0.98559 2.16393-0.75783 0.95841-2.13804 0.43835-3.11422 0.1782-3.98078-1.15584-7.7995-2.85159-11.4126-4.87366-1.14936-0.7115-2.37992-1.44384-3.1701-2.5636-0.42855-0.90682 0.51084-1.98701 1.46887-1.74065 0.61969 0.0397 1.21084 0.2513 1.80452 0.41591zm-14.4483-3.23616c-0.72704 0.044-0.26204 1.04176 0.27288 0.63824 0.19714-0.0885-0.21135-0.5143-0.27288-0.63824z" fill="#000000" stroke-width="1.02833"/></svg>
