<svg width="7mm" height="12mm" version="1.1" viewBox="0 0 7 12" xmlns="http://www.w3.org/2000/svg"><g transform="translate(-129.37 -52.5991)"><path d="m132.795 63.7875c0.17692-0.38021 0.29535-0.47401 0.54452-0.43151 0.6585 0.11232 0.7853-0.40535 0.6972-2.84737-0.0758-2.10331-0.0683-2.18844 0.18049-2.05361 0.38171 0.20681 0.71282 0.17225 1.01665-0.10611 0.26148-0.239611 0.26688-0.232411 0.18518 0.24873-0.41077 2.41887-0.62037 5.68336-0.36487 5.68336 0.18049 0 0.23406-0.27491 0.49847-2.55841 0.76302-6.5895 0.83289-7.39095 0.6443-7.39095-0.16332 0-0.2046 0.149714-0.42701 1.54808-0.18779 1.18081-0.21283 1.19336-0.87995 0.440944-0.31147-0.351316-0.86815-0.965438-1.23706-1.36472-0.52793-0.57131-0.65633-0.802572-0.60283-1.0856 0.1567-0.82993-0.66614-1.33816-0.94864-0.58594-0.0772 0.205767-0.1043 0.489209-0.0603 0.629878 0.0513 0.16364-0.10242 0.497942-0.42679 0.92815-1.68614 2.23629-2.3522 5.7282-0.82345 4.317 0.30241-0.27926 0.36091-0.29763 0.28711-0.0903-0.051 0.1432-0.0926 0.31407-0.0926 0.37967s-0.41067 0.57234-0.91259 1.12604c-1.04856 1.15674-0.68665 2.20973 0.50133 1.45864 0.3933-0.2487 0.4431-0.2128 0.3432 0.24769-0.10341 0.47668 0.23069 0.76238 0.73532 0.62879 0.32675-0.0865 0.50369 0.16355 0.64323 0.90903 0 0-0.0209 0.458768 0.21462 0.459542s0.16297-0.229952 0.28447-0.491022z" fill="currentColor"/></g></svg>
